<?xml version="1.0" encoding="UTF-8"?>
<!DOCTYPE svg PUBLIC "-//W3C//DTD SVG 1.1//EN" "http://www.w3.org/Graphics/SVG/1.1/DTD/svg11.dtd">
<svg xmlns="http://www.w3.org/2000/svg" version="1.1" width="1053px" height="338px" style="shape-rendering:geometricPrecision; text-rendering:geometricPrecision; image-rendering:optimizeQuality; fill-rule:evenodd; clip-rule:evenodd" xmlns:xlink="http://www.w3.org/1999/xlink">
<g><path style="opacity:0.997" fill="#8cc63e" d="M 816.5,5.5 C 836.833,5.5 857.167,5.5 877.5,5.5C 877.5,72.8333 877.5,140.167 877.5,207.5C 857.385,200.906 837.385,193.906 817.5,186.5C 816.5,126.17 816.167,65.837 816.5,5.5 Z"/></g>
<g><path style="opacity:0.995" fill="#e01a2b" d="M 735.5,39.5 C 754.5,39.5 773.5,39.5 792.5,39.5C 792.5,83.8333 792.5,128.167 792.5,172.5C 773.641,165.741 754.975,158.407 736.5,150.5C 735.5,113.506 735.167,76.506 735.5,39.5 Z"/></g>
<g><path style="opacity:0.893" fill="#013d7b" d="M 487.5,41.5 C 495.623,40.4657 499.956,43.9657 500.5,52C 500.077,55.2691 499.244,58.4358 498,61.5C 486.615,83.2262 471.615,102.226 453,118.5C 448.306,129.415 445.139,140.748 443.5,152.5C 444.124,154.754 445.457,156.421 447.5,157.5C 454.921,154.591 461.087,149.924 466,143.5C 472.276,133.558 478.943,123.892 486,114.5C 497.196,102.879 510.696,98.7124 526.5,102C 537.305,109.32 538.305,117.987 529.5,128C 518.295,135.588 506.129,137.755 493,134.5C 488.901,142.351 488.568,150.351 492,158.5C 497.206,162.842 503.04,163.675 509.5,161C 524.659,152.175 535.992,139.841 543.5,124C 543.833,123.833 544.167,123.667 544.5,123.5C 545.655,126.446 545.821,129.446 545,132.5C 538.834,143.322 531.334,153.156 522.5,162C 509.72,171.162 496.053,172.828 481.5,167C 474.296,161.753 471.129,154.586 472,145.5C 463.631,158.548 451.964,166.882 437,170.5C 432.681,170.499 429.681,168.499 428,164.5C 426.336,158.872 426.002,153.205 427,147.5C 412.979,169.51 394.146,175.344 370.5,165C 365.763,159.792 363.596,153.625 364,146.5C 353.12,165.19 336.953,173.023 315.5,170C 303.657,166.162 298.49,157.996 300,145.5C 293.274,157.904 283.274,166.237 270,170.5C 264.926,170.1 261.593,167.433 260,162.5C 259.364,154.731 259.697,147.064 261,139.5C 253.825,151.674 244.325,161.507 232.5,169C 225.937,171.895 220.77,170.395 217,164.5C 214.537,152.458 215.87,140.791 221,129.5C 223.675,123.837 226.009,118.17 228,112.5C 224.087,115.023 219.921,115.69 215.5,114.5C 210.288,125.098 203.955,134.932 196.5,144C 189.383,147.846 182.049,148.512 174.5,146C 169.548,154.619 162.881,161.619 154.5,167C 122.646,176.146 110.812,164.646 119,132.5C 123.953,117.881 133.453,107.381 147.5,101C 156.309,98.715 164.976,99.0484 173.5,102C 179.581,107.071 182.248,113.571 181.5,121.5C 181.772,127.078 180.772,132.411 178.5,137.5C 185.357,142.034 191.524,141.034 197,134.5C 201.341,127.821 205.175,120.821 208.5,113.5C 203.819,109.142 202.319,103.809 204,97.5C 207.71,93.4301 212.21,92.4301 217.5,94.5C 217.354,102.583 221.187,107.25 229,108.5C 233.215,105.299 237.715,102.466 242.5,100C 247.172,99.8325 251.839,100.166 256.5,101C 245.171,115.826 237.171,132.326 232.5,150.5C 232.998,152.664 234.164,154.331 236,155.5C 243.217,151.621 249.217,146.288 254,139.5C 259.692,128.619 265.525,117.785 271.5,107C 267.514,106.501 263.514,106.334 259.5,106.5C 259.178,104.278 259.845,102.444 261.5,101C 266.533,100.829 271.533,100.329 276.5,99.5C 280.402,89.7757 286.068,81.2757 293.5,74C 294.833,73.3333 296.167,72.6667 297.5,72C 301.887,71.774 306.221,71.274 310.5,70.5C 310.833,70.8333 311.167,71.1667 311.5,71.5C 303.402,79.7758 297.068,89.2758 292.5,100C 298.528,100.17 304.528,100.67 310.5,101.5C 309.352,103.149 308.019,104.649 306.5,106C 300.804,106.17 295.138,106.67 289.5,107.5C 283.874,119.42 279.374,131.753 276,144.5C 274.002,152.796 276.835,155.629 284.5,153C 287.63,150.872 290.463,148.372 293,145.5C 299.06,137.103 304.727,128.437 310,119.5C 320.931,103.854 335.764,98.0211 354.5,102C 362.687,106.219 365.187,112.719 362,121.5C 358.96,127.603 354.126,129.769 347.5,128C 344.009,126.179 342.843,123.346 344,119.5C 350.167,118.338 352.834,114.671 352,108.5C 351.044,107.106 349.711,106.439 348,106.5C 344.616,107.072 341.449,108.239 338.5,110C 328.269,118.297 321.436,128.797 318,141.5C 315.326,160.164 322.826,166.331 340.5,160C 355.085,149.332 366.252,135.832 374,119.5C 385.109,104.241 399.942,98.4074 418.5,102C 429.305,109.32 430.305,117.987 421.5,128C 410.295,135.588 398.129,137.755 385,134.5C 380.901,142.351 380.568,150.351 384,158.5C 388.091,162.305 392.924,163.472 398.5,162C 413.975,154.525 425.475,143.025 433,127.5C 439.477,105.883 448.144,85.2165 459,65.5C 463.122,59.7095 467.622,54.2095 472.5,49C 477.06,45.3864 482.06,42.8864 487.5,41.5 Z M 459.5,102.5 C 465.195,82.9425 474.195,65.1092 486.5,49C 488.677,47.7978 491.011,47.2978 493.5,47.5C 491.958,56.9231 488.458,65.5898 483,73.5C 476.06,83.9346 468.227,93.6013 459.5,102.5 Z M 410.5,106.5 C 415.989,106.504 417.822,109.171 416,114.5C 410.32,125.59 401.487,130.423 389.5,129C 389.043,128.586 388.709,128.086 388.5,127.5C 393.331,117.664 400.665,110.664 410.5,106.5 Z M 518.5,106.5 C 523.989,106.504 525.822,109.171 524,114.5C 518.32,125.59 509.487,130.423 497.5,129C 497.043,128.586 496.709,128.086 496.5,127.5C 501.331,117.664 508.665,110.664 518.5,106.5 Z M 162.5,107.5 C 167.703,107.539 171.036,110.039 172.5,115C 162.553,117.442 159.386,123.609 163,133.5C 164.141,135.609 165.641,137.442 167.5,139C 164.155,146.028 159.822,152.361 154.5,158C 150.204,161.982 145.204,163.315 139.5,162C 136.035,159.475 134.368,155.975 134.5,151.5C 136.885,135.562 143.885,122.062 155.5,111C 157.925,109.787 160.259,108.621 162.5,107.5 Z"/></g>
<g><path style="opacity:0.907" fill="#013d7b" d="M 133.5,48.5 C 138.833,48.9332 144.166,49.4332 149.5,50C 144.917,53.9123 141.083,58.4123 138,63.5C 122.293,90.9167 109.293,119.583 99,149.5C 96.9795,155.472 96.1461,161.472 96.5,167.5C 92.2172,168.492 87.8839,168.826 83.5,168.5C 83.728,163.325 82.8947,158.325 81,153.5C 74.2745,137.715 67.2745,122.049 60,106.5C 56.8516,98.389 54.5183,90.0556 53,81.5C 41.0321,104.772 30.6988,128.772 22,153.5C 20.3638,158.375 19.5305,163.375 19.5,168.5C 13.4908,168.666 7.49076,168.499 1.5,168C 17.673,130.157 35.0063,92.8239 53.5,56C 38.2589,55.6437 24.2589,59.6437 11.5,68C 8.60473,70.5571 6.10473,73.3905 4,76.5C 1.06351,74.6327 0.730178,72.2994 3,69.5C 8.60326,56.6142 18.4366,50.1142 32.5,50C 45.1623,49.5001 57.8289,49.3334 70.5,49.5C 67.9036,57.8222 68.0702,66.1555 71,74.5C 76.7232,89.6127 82.7232,104.613 89,119.5C 90.3333,124.167 91.6667,128.833 93,133.5C 105.059,106.381 117.393,79.3808 130,52.5C 130.69,50.6498 131.856,49.3164 133.5,48.5 Z"/></g>
<g><path style="opacity:0.99" fill="#8cc63e" d="M 653.5,66.5 C 673.5,66.5 693.5,66.5 713.5,66.5C 713.5,91.1667 713.5,115.833 713.5,140.5C 693.754,133.13 674.087,125.464 654.5,117.5C 653.501,100.513 653.167,83.5131 653.5,66.5 Z"/></g>
<g><path style="opacity:0.975" fill="#013d7b" d="M 646.5,131.5 C 648.199,131.34 649.866,131.506 651.5,132C 727.584,165.028 803.751,197.861 880,230.5C 909.938,208.9 939.604,186.9 969,164.5C 969.617,163.551 969.451,162.718 968.5,162C 962.45,158.649 956.784,154.815 951.5,150.5C 980.73,145.181 1010.06,140.515 1039.5,136.5C 1030.64,166.091 1020.97,195.424 1010.5,224.5C 1005.43,217.375 1000.6,210.041 996,202.5C 967.833,223.333 939.667,244.167 911.5,265C 884.167,265.667 856.833,265.667 829.5,265C 771.057,240.695 712.557,216.529 654,192.5C 620.915,216.964 588.082,241.797 555.5,267C 546.173,267.5 536.839,267.666 527.5,267.5C 527.333,252.83 527.5,238.163 528,223.5C 567.659,192.934 607.159,162.268 646.5,131.5 Z"/></g>
<g><path style="opacity:0.895" fill="#000000" d="M 19.5,208.5 C 25.5554,208.53 31.0554,210.197 36,213.5C 34.9472,221.312 31.4472,222.478 25.5,217C 22.438,216.259 19.438,216.425 16.5,217.5C 13.887,220.371 13.887,223.205 16.5,226C 21.4203,228.196 26.4203,230.196 31.5,232C 39.3453,239.852 39.3453,247.852 31.5,256C 21.312,261.018 11.6453,260.184 2.5,253.5C 3.25938,250.594 4.92605,248.594 7.5,247.5C 11.3892,249.861 15.5559,251.528 20,252.5C 27.3903,251.147 29.2236,247.314 25.5,241C 19.7683,238.817 14.1016,236.484 8.5,234C 2.48852,225.439 3.48852,217.772 11.5,211C 14.3102,210.218 16.9768,209.384 19.5,208.5 Z"/></g>
<g><path style="opacity:0.864" fill="#000000" d="M 116.5,214.5 C 118.833,214.5 121.167,214.5 123.5,214.5C 123.5,217.5 123.5,220.5 123.5,223.5C 126.5,223.5 129.5,223.5 132.5,223.5C 132.5,225.833 132.5,228.167 132.5,230.5C 129.5,230.5 126.5,230.5 123.5,230.5C 123.334,237.508 123.5,244.508 124,251.5C 125.756,252.548 127.59,252.548 129.5,251.5C 131.405,252.466 132.738,253.966 133.5,256C 128.133,260.095 122.466,260.428 116.5,257C 115.54,255.581 114.707,254.081 114,252.5C 113.5,245.174 113.334,237.841 113.5,230.5C 111.833,230.5 110.167,230.5 108.5,230.5C 108.5,228.5 108.5,226.5 108.5,224.5C 110.5,224.5 112.5,224.5 114.5,224.5C 114.851,221.097 115.518,217.763 116.5,214.5 Z"/></g>
<g><path style="opacity:0.874" fill="#000000" d="M 39.5,223.5 C 42.5184,223.335 45.5184,223.502 48.5,224C 49,224.5 49.5,225 50,225.5C 52.7433,231.985 55.7433,238.319 59,244.5C 61.5627,237.709 64.3961,231.042 67.5,224.5C 70.4212,223.593 73.4212,223.26 76.5,223.5C 70.2927,238.252 63.7927,252.919 57,267.5C 53.8753,268.787 50.7087,268.787 47.5,267.5C 49.6363,263.394 51.6363,259.228 53.5,255C 48.684,244.537 44.0173,234.037 39.5,223.5 Z"/></g>
<g><path style="opacity:0.881" fill="#000000" d="M 86.5,223.5 C 90.5138,223.334 94.5138,223.501 98.5,224C 100.874,224.848 102.874,226.181 104.5,228C 104.097,229.473 103.43,230.806 102.5,232C 99.0062,232.103 95.6728,231.27 92.5,229.5C 88.1113,230.606 87.1113,232.773 89.5,236C 93.9901,237.274 98.3234,238.941 102.5,241C 107.162,248.015 105.829,253.682 98.5,258C 90.7567,260.661 83.7567,259.494 77.5,254.5C 78.3485,252.129 80.0151,250.796 82.5,250.5C 86.0241,252.088 89.6908,252.588 93.5,252C 96.6992,250.321 97.0325,248.321 94.5,246C 90.0099,244.726 85.6766,243.059 81.5,241C 76.4396,233.271 78.1062,227.437 86.5,223.5 Z"/></g>
<g><path style="opacity:0.909" fill="#000000" d="M 148.5,223.5 C 163.366,221.402 170.366,227.736 169.5,242.5C 161.472,242.169 153.472,242.502 145.5,243.5C 146.163,247.341 148.163,250.175 151.5,252C 156.708,252.362 161.708,251.695 166.5,250C 170.379,253.92 169.379,256.587 163.5,258C 144.476,262.26 135.642,254.76 137,235.5C 139.019,229.65 142.852,225.65 148.5,223.5 Z M 153.5,229.5 C 157.704,230.036 160.371,232.369 161.5,236.5C 156.544,237.494 151.544,237.827 146.5,237.5C 146.744,232.927 149.078,230.26 153.5,229.5 Z"/></g>
<g><path style="opacity:0.881" fill="#000000" d="M 176.5,223.5 C 180.287,222.814 183.454,223.814 186,226.5C 192.701,221.911 198.701,222.578 204,228.5C 205.518,226.652 207.351,225.152 209.5,224C 220.682,221.154 226.849,225.32 228,236.5C 228.5,243.826 228.666,251.159 228.5,258.5C 225.167,258.5 221.833,258.5 218.5,258.5C 218.666,250.16 218.5,241.827 218,233.5C 215.068,228.889 211.735,228.555 208,232.5C 207.5,241.16 207.334,249.827 207.5,258.5C 204.167,258.5 200.833,258.5 197.5,258.5C 197.666,249.827 197.5,241.16 197,232.5C 193.363,228.404 190.03,228.737 187,233.5C 186.5,241.827 186.334,250.16 186.5,258.5C 183.167,258.5 179.833,258.5 176.5,258.5C 176.5,246.833 176.5,235.167 176.5,223.5 Z"/></g>
<g><path style="opacity:0.881" fill="#000000" d="M 241.5,223.5 C 245.514,223.334 249.514,223.501 253.5,224C 255.874,224.848 257.874,226.181 259.5,228C 259.097,229.473 258.43,230.806 257.5,232C 254.006,232.103 250.673,231.27 247.5,229.5C 243.111,230.606 242.111,232.773 244.5,236C 248.99,237.274 253.323,238.941 257.5,241C 262.162,248.015 260.829,253.682 253.5,258C 245.757,260.661 238.757,259.494 232.5,254.5C 233.348,252.129 235.015,250.796 237.5,250.5C 241.024,252.088 244.691,252.588 248.5,252C 251.699,250.321 252.033,248.321 249.5,246C 245.01,244.726 240.677,243.059 236.5,241C 231.44,233.271 233.106,227.437 241.5,223.5 Z"/></g>
<g><path style="opacity:0.871" fill="#e01a2b" d="M 673.5,257.5 C 684.216,257.156 694.882,257.656 705.5,259C 710.877,260.709 713.544,264.376 713.5,270C 712.767,277.127 709.1,282.127 702.5,285C 698.986,286.562 695.319,287.395 691.5,287.5C 694.804,298.651 700.804,308.151 709.5,316C 704.833,316.667 700.167,316.667 695.5,316C 691.242,312.011 688.075,307.177 686,301.5C 683.602,296.426 682.435,291.26 682.5,286C 690.074,285.481 696.574,282.647 702,277.5C 706.42,269.072 704.086,263.738 695,261.5C 693.289,261.439 691.956,262.106 691,263.5C 680.494,279.841 673.327,297.507 669.5,316.5C 665.445,316.824 661.445,316.491 657.5,315.5C 664.255,297.015 671.755,279.015 680,261.5C 673.146,262.508 666.646,264.674 660.5,268C 656.687,272.311 655.853,271.478 658,265.5C 661.858,259.989 667.024,257.323 673.5,257.5 Z"/></g>
<g><path style="opacity:0.867" fill="#e01a2b" d="M 941.5,257.5 C 950.884,257.184 960.218,257.684 969.5,259C 977.94,263.454 979.774,269.954 975,278.5C 971.686,281.818 967.852,284.318 963.5,286C 974.175,289.521 977.008,296.355 972,306.5C 969.408,309.762 966.241,312.262 962.5,314C 955.731,316.573 948.731,318.073 941.5,318.5C 935.691,318.644 930.524,316.978 926,313.5C 925.15,304.702 926.817,296.369 931,288.5C 935.167,280.167 939.333,271.833 943.5,263.5C 936.816,262.995 930.483,264.495 924.5,268C 923.382,269.074 922.382,270.24 921.5,271.5C 921.046,267.231 922.712,263.731 926.5,261C 931.47,259.185 936.47,258.018 941.5,257.5 Z M 955.5,261.5 C 965.267,260.761 969.1,265.094 967,274.5C 962.389,282.941 955.222,286.441 945.5,285C 944.643,285.689 943.977,286.522 943.5,287.5C 947.317,288.652 951.15,288.652 955,287.5C 959.229,288.063 961.895,290.396 963,294.5C 964.394,303.873 960.561,310.039 951.5,313C 946.472,314.817 941.472,314.817 936.5,313C 935.39,310.263 935.223,307.429 936,304.5C 940.901,289.37 947.401,275.037 955.5,261.5 Z"/></g>
<g><path style="opacity:0.797" fill="#e01a2b" d="M 773.5,266.5 C 778.123,265.408 779.956,267.075 779,271.5C 775.917,273.438 772.751,275.104 769.5,276.5C 768.749,272.18 770.083,268.847 773.5,266.5 Z"/></g>
<g><path style="opacity:0.797" fill="#e01a2b" d="M 825.5,266.5 C 830.123,265.408 831.956,267.075 831,271.5C 827.917,273.438 824.751,275.104 821.5,276.5C 820.749,272.18 822.083,268.847 825.5,266.5 Z"/></g>
<g><path style="opacity:0.844" fill="#e01a2b" d="M 1052.5,294.5 C 1052.5,296.167 1052.5,297.833 1052.5,299.5C 1048.41,306.761 1042.74,312.594 1035.5,317C 1029.88,317.887 1027.21,315.387 1027.5,309.5C 1028.66,302.527 1030.5,295.861 1033,289.5C 1031,290.167 1029,290.833 1027,291.5C 1023.11,301.059 1017.27,309.225 1009.5,316C 1006.1,318.036 1002.94,317.869 1000,315.5C 999.667,311.833 999.333,308.167 999,304.5C 995.131,310.709 989.798,315.042 983,317.5C 980.191,317.248 978.191,315.915 977,313.5C 975.687,300.961 980.187,291.128 990.5,284C 996.639,281.345 1002.14,282.178 1007,286.5C 1010.4,282.797 1014.56,281.631 1019.5,283C 1013.89,290.551 1009.89,298.885 1007.5,308C 1008.03,308.692 1008.69,309.192 1009.5,309.5C 1012.43,308.07 1014.93,306.07 1017,303.5C 1019.4,298.788 1021.9,294.122 1024.5,289.5C 1021.08,286.58 1020.74,283.413 1023.5,280C 1027.81,278.456 1029.98,279.956 1030,284.5C 1033.61,287.381 1036.78,286.881 1039.5,283C 1042.23,282.182 1044.89,282.348 1047.5,283.5C 1042.16,291.502 1038.5,300.169 1036.5,309.5C 1038.31,309.509 1039.98,309.009 1041.5,308C 1045.32,303.451 1048.99,298.951 1052.5,294.5 Z M 999.5,286.5 C 1004.64,285.456 1006.14,287.123 1004,291.5C 1000.24,298.258 995.405,304.091 989.5,309C 987.393,309.854 986.059,309.188 985.5,307C 987.606,298.248 992.273,291.415 999.5,286.5 Z"/></g>
<g><path style="opacity:0.85" fill="#e01a2b" d="M 770.5,307.5 C 771.167,307.5 771.5,307.167 771.5,306.5C 772.167,306.5 772.5,306.167 772.5,305.5C 778.39,304.706 779.723,306.706 776.5,311.5C 781.673,316.074 785.673,315.074 788.5,308.5C 786.92,304.088 784.087,300.755 780,298.5C 776.071,291.044 777.904,285.544 785.5,282C 789.167,281.333 792.833,281.333 796.5,282C 801.685,285.52 801.685,289.187 796.5,293C 794.559,293.743 792.726,293.576 791,292.5C 790.833,292 790.667,291.5 790.5,291C 791.996,289.669 793.329,288.169 794.5,286.5C 792.004,284.047 789.338,283.88 786.5,286C 785.424,287.726 785.257,289.559 786,291.5C 789,293.833 792,296.167 795,298.5C 796.846,301.569 797.846,304.902 798,308.5C 800.575,305.681 802.908,302.681 805,299.5C 806.893,292.858 810.393,287.358 815.5,283C 818.227,282.182 820.894,282.348 823.5,283.5C 817.613,291.268 813.947,299.935 812.5,309.5C 819.511,306.315 824.344,300.981 827,293.5C 827.679,290.45 828.512,287.45 829.5,284.5C 829.291,283.914 828.957,283.414 828.5,283C 833.147,281.52 836.813,282.686 839.5,286.5C 844.521,282.703 850.021,281.703 856,283.5C 856.309,284.766 856.809,285.933 857.5,287C 854.741,294.356 852.407,301.856 850.5,309.5C 852.783,309.392 854.783,308.559 856.5,307C 860.624,301.923 864.124,296.423 867,290.5C 872.078,284.208 878.578,281.708 886.5,283C 888.286,283.785 889.786,284.951 891,286.5C 894.496,282.785 898.663,281.785 903.5,283.5C 901.42,285.993 899.586,288.659 898,291.5C 893.731,304.033 888.398,316.033 882,327.5C 874.952,335.073 866.452,337.573 856.5,335C 853.283,330.034 854.45,326.534 860,324.5C 864.075,325.44 864.575,327.44 861.5,330.5C 861.977,331.478 862.643,332.311 863.5,333C 866.017,333.257 868.35,332.59 870.5,331C 876.659,323.852 880.492,315.685 882,306.5C 878.445,312.113 873.445,315.78 867,317.5C 862.521,316.223 860.187,313.223 860,308.5C 857.079,312.092 853.579,314.925 849.5,317C 847.029,317.706 844.695,317.373 842.5,316C 841.438,306.307 843.438,297.14 848.5,288.5C 847.758,287.713 846.925,287.047 846,286.5C 841.384,288.782 837.717,292.116 835,296.5C 832.273,302.679 829.94,309.013 828,315.5C 824.943,316.451 821.777,316.784 818.5,316.5C 818.815,314.774 818.981,313.107 819,311.5C 815.497,316.18 810.997,317.846 805.5,316.5C 803.889,313.78 803.056,310.78 803,307.5C 796.99,316.805 788.49,320.305 777.5,318C 771.386,317.049 769.053,313.549 770.5,307.5 Z M 883.5,286.5 C 885.199,286.34 886.866,286.506 888.5,287C 889.517,288.049 889.684,289.216 889,290.5C 885.265,296.904 880.765,302.737 875.5,308C 873.975,309.009 872.308,309.509 870.5,309.5C 870.98,299.53 875.313,291.863 883.5,286.5 Z"/></g>
<g><path style="opacity:0.847" fill="#e01a2b" d="M 772.5,305.5 C 771.833,305.5 771.5,305.833 771.5,306.5C 770.833,306.5 770.5,306.833 770.5,307.5C 766.77,313.526 761.437,316.693 754.5,317C 753.692,316.692 753.025,316.192 752.5,315.5C 751.77,312.891 751.27,310.224 751,307.5C 747.383,312.472 742.716,315.805 737,317.5C 735.289,317.561 733.956,316.894 733,315.5C 732.667,311.833 732.333,308.167 732,304.5C 728.131,310.709 722.798,315.042 716,317.5C 711.082,316.85 708.916,314.017 709.5,309C 710.032,296.831 715.699,288.164 726.5,283C 731.757,281.574 736.257,282.741 740,286.5C 743.396,282.797 747.563,281.631 752.5,283C 746.891,290.551 742.891,298.885 740.5,308C 741.025,308.692 741.692,309.192 742.5,309.5C 745.433,308.07 747.933,306.07 750,303.5C 753.455,296.753 757.289,290.253 761.5,284C 764.753,282.344 768.087,282.177 771.5,283.5C 765.613,291.268 761.947,299.935 760.5,309.5C 764.302,308.221 767.469,305.888 770,302.5C 771.667,299.833 773.333,297.167 775,294.5C 775.692,295.025 776.192,295.692 776.5,296.5C 775.412,299.67 774.079,302.67 772.5,305.5 Z M 732.5,286.5 C 737.639,285.456 739.139,287.123 737,291.5C 733.238,298.258 728.405,304.091 722.5,309C 720.393,309.854 719.059,309.188 718.5,307C 720.606,298.248 725.273,291.415 732.5,286.5 Z"/></g>
</svg>
