<svg xmlns="http://www.w3.org/2000/svg" width="32.067" height="26.469" viewBox="0 0 32.067 26.469">
  <path id="bottom-menu-property-active" d="M.8,26.469a.8.8,0,0,1-.8-.8v-9.6a3.2,3.2,0,0,1,3.2-3.2h5V3.2A3.2,3.2,0,0,1,11.4,0H21.911a3.2,3.2,0,0,1,3.2,3.2v.759h3.759a3.2,3.2,0,0,1,3.2,3.2V25.669h0a.8.8,0,0,1-.8.8Zm24.31-1.6h5.358V7.157a1.6,1.6,0,0,0-1.6-1.6H25.11ZM10.264,2.068A1.6,1.6,0,0,0,9.8,3.2V13.234a3.279,3.279,0,0,1,1.719,2.839v8.8h12V3.2a1.6,1.6,0,0,0-1.6-1.6H11.4A1.6,1.6,0,0,0,10.264,2.068Zm-8.2,12.875A1.6,1.6,0,0,0,1.6,16.073v8.8H9.916v-8.8a1.6,1.6,0,0,0-1.6-1.6H3.2A1.6,1.6,0,0,0,2.068,14.942Zm16.684,4.529a.8.8,0,1,1,0-1.6h1.24a.8.8,0,0,1,0,1.6Zm-5.438,0a.8.8,0,1,1,0-1.6h1.239a.8.8,0,0,1,0,1.6Zm5.438-5.438a.8.8,0,1,1,0-1.6h1.24a.8.8,0,0,1,0,1.6Zm-5.438,0a.8.8,0,1,1,0-1.6h1.239a.8.8,0,0,1,0,1.6ZM18.752,8.6a.8.8,0,1,1,0-1.6h1.24a.8.8,0,1,1,0,1.6Zm-5.438,0a.8.8,0,1,1,0-1.6h1.239a.8.8,0,0,1,0,1.6Z" fill="#0096ff"/>
</svg>
