<svg xmlns="http://www.w3.org/2000/svg" width="25" height="26.19" viewBox="0 0 25 26.19">
  <path id="hamburger-icon-settings" d="M10.719,26.19a2.381,2.381,0,0,1-2.381-2.381V22.361a1.181,1.181,0,0,0-.589-1.02,1.2,1.2,0,0,0-1.2-.013l-1.2.7a2.381,2.381,0,0,1-3.255-.874h0L.319,18.081a2.381,2.381,0,0,1,.873-3.252h0l1.19-.689a1.184,1.184,0,0,0,.6-1.029,1.2,1.2,0,0,0-.6-1.061h0l-1.19-.688a2.381,2.381,0,0,1-.87-3.251L2.092,5.038a2.381,2.381,0,0,1,3.254-.871l1.279.742a1.029,1.029,0,0,0,1.017,0h0L7.825,4.8a1.016,1.016,0,0,0,.509-.881V2.381A2.381,2.381,0,0,1,10.715,0h3.571a2.381,2.381,0,0,1,2.381,2.381V3.829a1.2,1.2,0,0,0,1.786,1.032l1.2-.694a2.381,2.381,0,0,1,3.252.874l1.774,3.069a2.381,2.381,0,0,1-.873,3.252h0l-1.19.689a1.21,1.21,0,0,0,0,2.088h0l1.19.689a2.381,2.381,0,0,1,.873,3.252h0L22.91,21.15a2.381,2.381,0,0,1-3.252.871l-1.2-.693a1.2,1.2,0,0,0-1.786,1.031v1.45A2.381,2.381,0,0,1,14.29,26.19ZM8.927,19.273a3.578,3.578,0,0,1,1.788,3.088v1.448h3.571V22.362a3.581,3.581,0,0,1,5.357-3.1l1.2.693,1.771-3.069-1.19-.689a3.6,3.6,0,0,1,0-6.213l1.19-.688L20.842,6.231l-1.2.693a3.581,3.581,0,0,1-5.357-3.1V2.381H10.715v1.54a3.408,3.408,0,0,1-1.7,2.943h0l-.183.1a3.4,3.4,0,0,1-3.393,0L4.156,6.231,2.382,9.3l1.19.688h0a3.6,3.6,0,0,1,0,6.213l-1.19.689,1.777,3.069,1.2-.693a3.578,3.578,0,0,1,3.569.007Zm.207-2.811A4.762,4.762,0,1,1,12.5,17.857,4.762,4.762,0,0,1,9.133,16.462Zm1.683-5.051a2.381,2.381,0,1,0,1.684-.7A2.382,2.382,0,0,0,10.817,11.412Z" transform="translate(0)" fill="#8d9ead"/>
</svg>
