<svg xmlns="http://www.w3.org/2000/svg" width="20" height="25.438" viewBox="0 0 20 25.438">
  <path id="hamburger-icon-logout" d="M9.037,25.437a.907.907,0,0,1-.448-.145L.409,19.84A.908.908,0,0,1,0,19.085V.909A.909.909,0,0,1,.909,0H15.45a.909.909,0,0,1,.909.909V4.544a.909.909,0,1,1-1.818,0V1.818H3.908l5.68,3.79A.908.908,0,0,1,10,6.362V19.994h4.544V17.268a.909.909,0,0,1,.909-.909h0a.909.909,0,0,1,.909.909V20.9a.909.909,0,0,1-.909.909H10v2.726a.917.917,0,0,1-.914.9ZM1.818,18.594,8.18,22.839V6.853L1.818,2.608Zm14.305-4.081a.913.913,0,0,1-.409-1.527L16.9,11.815h-5.08a.909.909,0,1,1,0-1.818H16.9L15.714,8.825A.913.913,0,0,1,17,7.534l2.726,2.726a.909.909,0,0,1,0,1.291L17,14.278a.912.912,0,0,1-.881.236Z" fill="#8d9ead"/>
</svg>
