<svg xmlns="http://www.w3.org/2000/svg" width="34.85" height="28.389" viewBox="0 0 34.85 28.389">
  <g id="bottom-menu-visitors-active" transform="translate(-93.384 -773.907)">
    <path id="Union_53" data-name="Union 53" d="M9.075,28.3.558,24.519A.934.934,0,0,1,0,23.657V.956A.984.984,0,0,1,.067.625C.076.606.085.577.095.558A.877.877,0,0,1,.275.294C.284.275.3.265.312.256a.649.649,0,0,1,.123-.1.368.368,0,0,1,.1-.057A.2.2,0,0,1,.606.067.874.874,0,0,1,.918,0H16.1a.949.949,0,0,1,.946.946V23.657a.949.949,0,0,1-.946.946H12.311a.946.946,0,1,1,0-1.893H15.15V1.893H5.413L9.851,3.87a.934.934,0,0,1,.558.861V27.443a.955.955,0,0,1-.435.795.9.9,0,0,1-.511.151A.925.925,0,0,1,9.075,28.3ZM1.893,23.042l6.624,2.943V5.347L1.893,2.4Zm3.785-6.955v-.946a.946.946,0,0,1,1.893,0v.946a.946.946,0,0,1-1.893,0Z" transform="translate(93.384 773.907)" fill="#0096ff"/>
    <path id="Union_54" data-name="Union 54" d="M.812,16.638a.805.805,0,0,1-.812-.8v-.8a5.639,5.639,0,0,1,5.681-5.6H8.928a5.639,5.639,0,0,1,5.681,5.6v.8a.805.805,0,0,1-.812.8ZM3.246,4a4.059,4.059,0,0,1,8.116,0A4.059,4.059,0,0,1,3.246,4Z" transform="translate(113.625 780.468)" fill="#0096ff"/>
  </g>
</svg>
