<svg xmlns="http://www.w3.org/2000/svg" width="24" height="24" viewBox="0 0 24 24">
  <path id="bottom-menu-dashboard" d="M19.313,24A2.816,2.816,0,0,1,16.5,21.188V19.313A2.815,2.815,0,0,1,19.313,16.5h1.875A2.816,2.816,0,0,1,24,19.313v1.875A2.816,2.816,0,0,1,21.188,24Zm-.937-4.687v1.875a.938.938,0,0,0,.937.937h1.875a.938.938,0,0,0,.937-.937V19.313a.938.938,0,0,0-.937-.937H19.313A.938.938,0,0,0,18.375,19.313ZM2.812,24A2.816,2.816,0,0,1,0,21.188V19.313A2.815,2.815,0,0,1,2.812,16.5h9a2.816,2.816,0,0,1,2.812,2.812v1.875A2.816,2.816,0,0,1,11.813,24Zm-.937-4.687v1.875a.938.938,0,0,0,.937.937h9a.938.938,0,0,0,.937-.937V19.313a.938.938,0,0,0-.937-.937h-9A.938.938,0,0,0,1.875,19.313Zm10.312-4.688a2.816,2.816,0,0,1-2.812-2.812v-9A2.816,2.816,0,0,1,12.187,0h9A2.816,2.816,0,0,1,24,2.812v9a2.816,2.816,0,0,1-2.812,2.812ZM11.25,2.813v9a.938.938,0,0,0,.937.937h9a.938.938,0,0,0,.937-.937v-9a.938.938,0,0,0-.937-.937h-9A.938.938,0,0,0,11.25,2.813ZM2.813,14.625A2.816,2.816,0,0,1,0,11.813v-9A2.816,2.816,0,0,1,2.813,0H4.688A2.816,2.816,0,0,1,7.5,2.812v9a2.816,2.816,0,0,1-2.812,2.812ZM1.875,2.813v9a.938.938,0,0,0,.937.937H4.688a.938.938,0,0,0,.937-.937v-9a.938.938,0,0,0-.937-.937H2.813A.938.938,0,0,0,1.875,2.813Z" fill="#0096ff"/>
</svg>
