<svg xmlns="http://www.w3.org/2000/svg" width="24" height="27.293" viewBox="0 0 24 27.293">
  <path id="bottom-menu-services-active" d="M2.725,27.293a1.184,1.184,0,0,1-1.179-1.179V11.274a4.193,4.193,0,0,0,1.869.23V21.627h17.2V11.5h0a4.574,4.574,0,0,0,1.869-.2V26.114A1.184,1.184,0,0,1,21.3,27.293Zm5.493-6.931V19.183A2.61,2.61,0,0,1,10,16.71a3.519,3.519,0,0,0,4.026,0,2.61,2.61,0,0,1,1.783,2.473v1.179Zm1.5-6.644a2.3,2.3,0,1,1,2.3,2.3A2.308,2.308,0,0,1,9.713,13.718ZM18.83,9.146a2.968,2.968,0,0,1-2.215,1.007h-.2A3,3,0,0,1,14.258,9.2a2.94,2.94,0,0,1-2.157.949h-.23A2.94,2.94,0,0,1,9.713,9.2a3,3,0,0,1-2.157.949H7.384A2.969,2.969,0,0,1,5.169,9.146a2.923,2.923,0,0,1-2.215,1.007A2.964,2.964,0,0,1,.165,8.168,3.017,3.017,0,0,1,.251,5.982l.92-2.243a11.682,11.682,0,0,0,.719-2.416A1.633,1.633,0,0,1,3.5,0h17a1.611,1.611,0,0,1,1.611,1.323,14.216,14.216,0,0,0,.719,2.387l.92,2.243h0a3.09,3.09,0,0,1,.086,2.214,2.964,2.964,0,0,1-2.79,1.984A2.923,2.923,0,0,1,18.83,9.146Z" transform="translate(0)" fill="#0096ff"/>
</svg>
