<svg xmlns="http://www.w3.org/2000/svg" width="32" height="21.334" viewBox="0 0 32 21.334">
  <path id="hamburger-icon-password" d="M22.4,21.334a3.915,3.915,0,0,1-3.91-3.91V11.731A3.908,3.908,0,0,1,20.363,8.4V4.188C20.363,1.878,22.527,0,25.187,0H25.3c2.659,0,4.822,1.878,4.822,4.188a.813.813,0,0,1-1.627,0c0-1.412-1.433-2.561-3.2-2.561h-.115c-1.762,0-3.2,1.149-3.2,2.561V7.843a4.053,4.053,0,0,1,.406-.021H28.09A3.914,3.914,0,0,1,32,11.731v5.693a3.914,3.914,0,0,1-3.91,3.91Zm-2.283-9.6v5.693A2.286,2.286,0,0,0,22.4,19.707H28.09a2.286,2.286,0,0,0,2.283-2.283V11.731A2.286,2.286,0,0,0,28.09,9.448H22.4A2.285,2.285,0,0,0,20.113,11.731ZM5.671,20.7a5.67,5.67,0,1,1,0-11.339H16.589a.813.813,0,0,1,.813.813h0a.813.813,0,0,1-.813.813H5.671a4.043,4.043,0,1,0,0,8.086H16.59a.813.813,0,0,1,0,1.627Zm6.558-2.8a.814.814,0,0,1-.249-1.123l.678-1.064-1.219-.326a.813.813,0,0,1,.421-1.572l1.267.34V12.848a.813.813,0,0,1,1.627,0v1.157l1.07-.442a.813.813,0,0,1,1.062.442h0a.814.814,0,0,1-.442,1.062l-1.167.481.81.967a.813.813,0,1,1-1.247,1.045l-.81-.967-.678,1.064a.812.812,0,0,1-1.123.248Zm-7.363,0a.813.813,0,0,1-.249-1.123L5.3,15.718l-1.219-.326A.813.813,0,0,1,4.5,13.82l1.267.34V12.848a.813.813,0,0,1,1.627,0v1.157l1.07-.442a.814.814,0,0,1,1.062.442h0a.814.814,0,0,1-.441,1.062l-1.167.481.81.967a.813.813,0,1,1-1.247,1.045l-.811-.967-.679,1.064a.812.812,0,0,1-1.123.248ZM24.43,15.587v-2.2a.813.813,0,1,1,1.627,0v2.2a.813.813,0,1,1-1.627,0Z" fill="#8d9ead"/>
</svg>
