<svg xmlns="http://www.w3.org/2000/svg" width="30" height="27.789" viewBox="0 0 30 27.789">
  <path id="hamburger-icon-helpdesk" d="M6.479,21.311c-7.1-7.1-7.672-11.65-5.02-14.3A11.793,11.793,0,0,1,2.753,5.777a1.253,1.253,0,0,1,1.768.189l3.568,4.515a1.194,1.194,0,0,1-.221,1.736l-.852.631a.765.765,0,0,0-.095,1.168L13.835,20.9A.787.787,0,0,0,15,20.806l.631-.853a1.22,1.22,0,0,1,1.736-.221l4.452,3.536h0A1.248,1.248,0,0,1,22.044,25a15.726,15.726,0,0,1-1.231,1.326A4.836,4.836,0,0,1,17.3,27.79C14.658,27.789,11.124,25.935,6.479,21.311Zm7.8-6.346V11.934H12.288A1.132,1.132,0,0,1,11.152,10.8V1.137A1.132,1.132,0,0,1,12.288,0H28.863A1.132,1.132,0,0,1,30,1.137V10.8a1.132,1.132,0,0,1-1.137,1.137H19.771l-3.757,3.757a.99.99,0,0,1-.708.3A1.019,1.019,0,0,1,14.277,14.965ZM24,5.936a1.421,1.421,0,1,0,1.421-1.421A1.415,1.415,0,0,0,24,5.936Zm-4.862,0A1.421,1.421,0,1,0,20.56,4.515,1.415,1.415,0,0,0,19.139,5.936Zm-4.862,0A1.421,1.421,0,1,0,15.7,4.515,1.415,1.415,0,0,0,14.277,5.936Z" transform="translate(0)" fill="#ff8900"/>
</svg>
