<svg xmlns="http://www.w3.org/2000/svg" width="30" height="29.9" viewBox="0 0 30 29.9">
  <path id="hamburger-icon-admin" d="M166.017,95.7h-4.108V76.778a.616.616,0,0,0-.616-.616H146.287a.616.616,0,0,0-.616.616V95.7h-1.848V75.238a.924.924,0,0,1,.924-.924h7.336V68.265a.616.616,0,0,0-.616-.616h-9.1a.616.616,0,0,0-.616.616V95.7h-3.886a.924.924,0,0,0,0,1.848h28.152a.924.924,0,1,0,0-1.848Zm-17.87-24.726a.924.924,0,0,1,1.848,0v.358a.924.924,0,0,1-1.848,0Zm-4.312,0a.924.924,0,1,1,1.848,0v.358a.924.924,0,1,1-1.848,0Zm9.03,8.728a.924.924,0,1,1,1.848,0v.351a.924.924,0,1,1-1.848,0Zm0,4.2a.924.924,0,1,1,1.848,0v.357a.924.924,0,1,1-1.848,0Zm0,4.207a.924.924,0,1,1,1.848,0v.351a.924.924,0,1,1-1.848,0Zm-2.464.351a.924.924,0,1,1-1.848,0v-.351a.924.924,0,0,1,1.848,0Zm0-4.2a.924.924,0,0,1-1.848,0v-.357a.924.924,0,1,1,1.848,0Zm0-4.207a.924.924,0,0,1-1.848,0V79.7a.924.924,0,0,1,1.848,0ZM155.3,95.7h-3.031V93.189a.616.616,0,0,1,.616-.616h1.8a.616.616,0,0,1,.616.616Zm3.721-7.237a.924.924,0,1,1-1.848,0v-.351a.924.924,0,0,1,1.848,0Zm0-4.2a.924.924,0,0,1-1.848,0v-.357a.924.924,0,0,1,1.848,0Zm0-4.207a.924.924,0,1,1-1.848,0V79.7a.924.924,0,0,1,1.848,0Z" transform="translate(-136.942 -67.649)" fill="#00b940"/>
</svg>
