<?xml version="1.0" standalone="no"?>
<!DOCTYPE svg PUBLIC "-//W3C//DTD SVG 20010904//EN"
 "http://www.w3.org/TR/2001/REC-SVG-20010904/DTD/svg10.dtd">
<svg version="1.0" xmlns="http://www.w3.org/2000/svg"
 width="126.000000pt" height="196.000000pt" viewBox="0 0 126.000000 196.000000"
 preserveAspectRatio="xMidYMid meet">

<g transform="translate(0.000000,196.000000) scale(0.100000,-0.100000)"
fill="#000000" stroke="none">
<path d="M463 1790 c-93 -19 -181 -89 -230 -182 l-28 -53 -3 -474 c-2 -318 1
-492 8 -527 47 -223 274 -379 500 -343 137 21 266 112 325 229 50 98 55 151
55 573 l0 387 -69 0 -70 0 -3 -412 -3 -413 -28 -57 c-50 -101 -137 -158 -253
-166 -103 -7 -164 16 -234 87 -92 92 -91 85 -88 627 l3 460 24 36 c42 61 85
83 161 83 83 0 137 -31 169 -97 20 -43 21 -57 21 -451 0 -394 -1 -408 -20
-427 -26 -26 -80 -26 -111 -1 l-24 19 -3 356 -3 356 -70 0 -70 0 3 -367 c3
-354 4 -369 25 -408 86 -160 308 -161 388 -2 l25 51 0 428 c0 494 0 496 -91
589 -80 82 -200 121 -306 99z"/>
</g>
</svg>
