<svg xmlns="http://www.w3.org/2000/svg" width="28" height="28" viewBox="0 0 28 28">
  <path id="hamburger-icon-dashboard" d="M18.294,28a3.045,3.045,0,0,1-3.045-3.045V18.294a3.045,3.045,0,0,1,3.045-3.045h6.661A3.045,3.045,0,0,1,28,18.294v6.661A3.045,3.045,0,0,1,24.955,28Zm0-3.049h6.661V18.293H18.294ZM3.045,28A3.045,3.045,0,0,1,0,24.955V18.294a3.045,3.045,0,0,1,3.045-3.045H9.706a3.045,3.045,0,0,1,3.045,3.045v6.661A3.045,3.045,0,0,1,9.706,28Zm0-3.049H9.706V18.293H3.045Zm15.249-12.2a3.045,3.045,0,0,1-3.045-3.045V3.045A3.045,3.045,0,0,1,18.294,0h6.661A3.045,3.045,0,0,1,28,3.045V9.706a3.045,3.045,0,0,1-3.045,3.045Zm0-3.049h6.661V3.045H18.294ZM3.045,12.751A3.045,3.045,0,0,1,0,9.706V3.045A3.045,3.045,0,0,1,3.045,0H9.706a3.045,3.045,0,0,1,3.045,3.045V9.706a3.045,3.045,0,0,1-3.045,3.045Zm0-3.049H9.706V3.045H3.045Z" fill="#517f9f"/>
</svg>
